<svg width="233" height="153" viewBox="0 0 233 153" fill="none" xmlns="http://www.w3.org/2000/svg">
<g clip-path="url(#clip0_223_14701)">
<mask id="mask0_223_14701" style="mask-type:luminance" maskUnits="userSpaceOnUse" x="0" y="0" width="61" height="28">
<path d="M60.5161 0H0V28H60.5161V0Z" fill="white"/>
</mask>
<g mask="url(#mask0_223_14701)">
<path fill-rule="evenodd" clip-rule="evenodd" d="M0.323563 28C0.0677794 28 -0.0842053 27.7137 0.0587408 27.5012L9.30641 13.7507C9.44934 13.5382 9.29738 13.2519 9.04156 13.2519H0.319932C0.0555431 13.2519 -0.0943305 12.9484 0.0660671 12.7378L2.67156 9.31671C2.73196 9.23738 2.82583 9.19084 2.92541 9.19084H12.1367C12.2438 9.19084 12.3438 9.13708 12.4029 9.04764L18.0558 0.501243C18.2628 0.188214 18.6126 0 18.9875 0H26.1204C26.385 0 26.5995 0.214904 26.5995 0.479999V24.1534C26.5995 24.33 26.4566 24.4734 26.28 24.4734H14.3152C14.0555 24.4734 13.9044 24.1791 14.0553 23.9673L16.2654 20.8669C16.3253 20.7827 16.4222 20.7328 16.5254 20.7328H22.0141C22.1904 20.7328 22.3335 20.5896 22.3335 20.4128V13.5719C22.3335 13.3952 22.1904 13.2519 22.0141 13.2519H15.6797C15.5724 13.2519 15.4722 13.306 15.4131 13.3957L5.89707 27.8562C5.83798 27.946 5.73783 28 5.63048 28H0.323563ZM18.3638 8.70391C18.2337 8.91714 18.3868 9.19077 18.6363 9.19077H21.8003C21.9766 9.19077 22.1197 9.0475 22.1197 8.87076V5.66343C22.1197 5.48671 21.9766 5.34344 21.8003 5.34344H20.5922C20.4811 5.34344 20.3778 5.40145 20.3198 5.49658L18.3638 8.70391Z" fill="white"/>
<path d="M35.0195 18.4L38.821 9.09186H34V7.34082H40.7984V9.09186L37.0123 18.4H35.0195Z" fill="white"/>
<path d="M46.1996 7.12573C46.9199 7.12573 47.5689 7.29725 48.1463 7.6403C48.7237 7.97822 49.1785 8.44925 49.5106 9.05342C49.8477 9.65246 50.0164 10.3437 50.0164 11.127V14.4985C50.0164 15.3331 49.8477 16.0627 49.5106 16.6873C49.1785 17.3068 48.711 17.7856 48.1079 18.1235C47.505 18.4614 46.8 18.6304 45.9926 18.6304C45.4357 18.6304 44.9094 18.5356 44.4137 18.3462C43.9183 18.1516 43.4737 17.8547 43.0803 17.4553L44.406 16.1574C44.6054 16.3878 44.843 16.5696 45.1189 16.7027C45.4 16.8307 45.6911 16.8947 45.9926 16.8947C46.4218 16.8947 46.7973 16.7949 47.1193 16.5952C47.4413 16.3904 47.6915 16.1267 47.8704 15.8042C48.0492 15.4765 48.1386 15.1257 48.1386 14.752V12.9165L48.4683 13.2851C48.1565 13.6538 47.7785 13.943 47.3338 14.1529C46.8895 14.3577 46.4218 14.4602 45.9314 14.4602C45.2415 14.4602 44.6285 14.3014 44.0919 13.984C43.5606 13.6665 43.1415 13.2365 42.8349 12.6937C42.5334 12.1459 42.3828 11.5264 42.3828 10.8352C42.3828 10.144 42.5565 9.51935 42.904 8.96127C43.2515 8.39806 43.7137 7.95261 44.2911 7.62494C44.8737 7.29215 45.5098 7.12573 46.1996 7.12573ZM46.1996 8.89215C45.8419 8.89215 45.515 8.97917 45.2185 9.15327C44.9222 9.32735 44.6872 9.56286 44.5135 9.85982C44.3397 10.1517 44.2529 10.4768 44.2529 10.8352C44.2529 11.1936 44.3372 11.5213 44.5058 11.8182C44.6795 12.1152 44.9121 12.3507 45.2031 12.5248C45.4996 12.6989 45.8266 12.7859 46.1843 12.7859C46.5419 12.7859 46.8689 12.6989 47.1654 12.5248C47.4617 12.3507 47.6967 12.1152 47.8704 11.8182C48.0492 11.5213 48.1386 11.1936 48.1386 10.8352C48.1386 10.487 48.0519 10.167 47.878 9.87517C47.7044 9.57822 47.4693 9.34015 47.1731 9.16095C46.8818 8.98175 46.5573 8.89215 46.1996 8.89215Z" fill="white"/>
<path d="M9.85156 6.48671L10.6261 5.92163L18.0509 16.14L17.2765 16.705L9.85156 6.48671Z" fill="#0D0E11"/>
</g>
</g>
<defs>
<clipPath id="clip0_223_14701">
<rect width="60.5161" height="28" fill="white"/>
</clipPath>
</defs>
</svg>
